<svg xmlns="http://www.w3.org/2000/svg" viewBox="0 0 1200 240" fill="none">
  <g stroke="#B87333" stroke-width="2.8" stroke-linecap="round" stroke-linejoin="round">
    <path d="M18 206H116V186H198"/>
    <path d="M52 224H146V206"/>
    <path d="M198 186H286"/>
    <path d="M286 186V168H362"/>
    <path d="M420 198H500"/>
    <path d="M700 198H780"/>
    <path d="M838 168H914V186H1002"/>
    <path d="M1002 186H1084V206H1182"/>
    <path d="M1054 224H1148V206"/>
    <path d="M22 232C40 219 57 202 69 183C82 162 89 140 90 116"/>
    <path d="M69 183C54 178 39 168 26 154"/>
    <path d="M69 183C86 176 102 166 116 152"/>
    <path d="M90 116C104 104 115 90 124 74"/>
    <path d="M124 74C136 68 146 60 154 50"/>
    <path d="M1178 232C1160 219 1143 202 1131 183C1118 162 1111 140 1110 116"/>
    <path d="M1131 183C1146 178 1161 168 1174 154"/>
    <path d="M1131 183C1114 176 1098 166 1084 152"/>
    <path d="M1110 116C1096 104 1085 90 1076 74"/>
    <path d="M1076 74C1064 68 1054 60 1046 50"/>
    <path d="M548 216H588"/>
    <path d="M612 216H652"/>
  </g>
  <g fill="#B87333">
    <circle cx="198" cy="186" r="3.2"/>
    <circle cx="146" cy="206" r="3.2"/>
    <circle cx="286" cy="186" r="3.2"/>
    <circle cx="362" cy="168" r="3.2"/>
    <circle cx="500" cy="198" r="3.2"/>
    <circle cx="700" cy="198" r="3.2"/>
    <circle cx="838" cy="168" r="3.2"/>
    <circle cx="1002" cy="186" r="3.2"/>
    <circle cx="1084" cy="206" r="3.2"/>
    <circle cx="116" cy="152" r="3.2"/>
    <circle cx="154" cy="50" r="3.2"/>
    <circle cx="1084" cy="152" r="3.2"/>
    <circle cx="1046" cy="50" r="3.2"/>
    <circle cx="588" cy="216" r="3.2"/>
    <circle cx="612" cy="216" r="3.2"/>
  </g>
</svg>
