<svg xmlns="http://www.w3.org/2000/svg" viewBox="0 0 160 600" fill="none">
  <g stroke="#B87333" stroke-width="2.4" stroke-linecap="round" stroke-linejoin="round">
    <path d="M10 592C14 570 20 550 30 530C40 509 46 487 46 458C46 428 40 402 34 374C27 340 28 307 36 277C45 245 55 214 54 176C53 136 40 98 31 64C25 42 22 24 22 10"/>
    <path d="M24 590C30 567 39 544 52 521C64 499 70 473 68 444C66 412 55 384 51 353C47 319 52 285 64 252C73 225 81 196 80 164C79 131 69 101 62 76"/>
    <path d="M0 540C11 532 20 523 28 512"/>
    <path d="M0 468C13 458 24 447 33 432C39 422 42 411 43 400"/>
    <path d="M18 306C10 291 7 274 8 256C9 239 15 223 24 210"/>
    <path d="M51 356C58 344 66 333 78 324"/>
    <path d="M30 520H58V500"/>
    <path d="M37 430H70"/>
    <path d="M52 346H78V328"/>
    <path d="M62 252H88"/>
    <path d="M74 178H100V160"/>
    <path d="M27 104H58V86"/>
  </g>
  <g fill="#B87333">
    <circle cx="28" cy="512" r="2.8"/>
    <circle cx="43" cy="400" r="2.8"/>
    <circle cx="24" cy="210" r="2.8"/>
    <circle cx="78" cy="324" r="2.8"/>
    <circle cx="58" cy="500" r="2.8"/>
    <circle cx="70" cy="430" r="2.8"/>
    <circle cx="78" cy="328" r="2.8"/>
    <circle cx="88" cy="252" r="2.8"/>
    <circle cx="100" cy="160" r="2.8"/>
    <circle cx="58" cy="86" r="2.8"/>
  </g>
</svg>
