<svg xmlns="http://www.w3.org/2000/svg" viewBox="0 0 240 240" fill="none">
  <g stroke="#B87333" stroke-width="2.7" stroke-linecap="round" stroke-linejoin="round">
    <path d="M24 222C28 198 30 171 32 144C34 114 42 86 56 60C69 38 89 23 116 16"/>
    <path d="M34 156C46 149 57 140 66 129C75 118 82 105 86 91"/>
    <path d="M42 106C54 100 65 91 74 81C84 70 91 57 95 43"/>
    <path d="M58 58C69 58 80 55 89 49C98 44 106 36 112 26"/>
    <path d="M31 190C40 184 48 176 55 167"/>
    <path d="M24 32H44"/>
    <path d="M122 16H142"/>
  </g>
  <g fill="#B87333">
    <path d="M86 91C94 84 103 82 112 85C105 92 96 94 86 91Z"/>
    <path d="M95 43C103 36 112 34 121 37C114 44 105 46 95 43Z"/>
    <path d="M112 26C120 19 129 17 138 20C131 27 122 29 112 26Z"/>
    <path d="M55 167C63 160 72 158 81 161C74 168 65 170 55 167Z"/>
    <path d="M58 58C50 51 48 42 50 33C58 39 61 48 58 58Z"/>
  </g>
</svg>
