<svg xmlns="http://www.w3.org/2000/svg" viewBox="0 0 240 240" fill="none">
  <g stroke="#B87333" stroke-width="2.7" stroke-linecap="round" stroke-linejoin="round">
    <path d="M18 46C34 50 49 59 61 71C74 83 84 97 90 112"/>
    <path d="M26 108C42 108 57 104 71 96C84 89 95 79 103 67"/>
    <path d="M42 22C51 34 62 44 75 51"/>
    <path d="M222 194C206 190 191 181 179 169C166 157 156 143 150 128"/>
    <path d="M214 132C198 132 183 136 169 144C156 151 145 161 137 173"/>
    <path d="M198 218C189 206 178 196 165 189"/>
    <path d="M120 26C118 44 113 61 104 76"/>
    <path d="M120 214C122 196 127 179 136 164"/>
    <path d="M90 112C97 118 103 124 107 132"/>
    <path d="M150 128C143 122 137 116 133 108"/>
  </g>
  <g fill="#B87333">
    <path d="M71 96C79 89 88 87 97 90C90 97 81 99 71 96Z"/>
    <path d="M75 51C84 45 93 44 101 48C94 54 85 56 75 51Z"/>
    <path d="M42 22C34 16 32 8 34 0C42 6 45 14 42 22Z"/>
    <path d="M169 144C161 151 152 153 143 150C150 143 159 141 169 144Z"/>
    <path d="M165 189C156 195 147 196 139 192C146 186 155 184 165 189Z"/>
    <path d="M198 218C206 224 208 232 206 240C198 234 195 226 198 218Z"/>
  </g>
</svg>
