<svg xmlns="http://www.w3.org/2000/svg" viewBox="0 0 1200 240" fill="none">
  <g stroke="#B87333" stroke-width="2.8" stroke-linecap="round" stroke-linejoin="round">
    <path d="M18 228C34 216 50 201 63 183C76 164 84 144 88 121"/>
    <path d="M63 183C81 179 99 172 115 161C130 151 144 138 155 123"/>
    <path d="M88 121C101 129 112 141 121 155"/>
    <path d="M88 121C101 112 112 101 121 87"/>
    <path d="M128 208C148 201 167 191 184 177C202 163 216 147 228 129"/>
    <path d="M208 224C232 219 256 216 280 215"/>
    <path d="M314 220C336 218 358 217 380 217"/>
    <path d="M1182 228C1166 216 1150 201 1137 183C1124 164 1116 144 1112 121"/>
    <path d="M1137 183C1119 179 1101 172 1085 161C1070 151 1056 138 1045 123"/>
    <path d="M1112 121C1099 129 1088 141 1079 155"/>
    <path d="M1112 121C1099 112 1088 101 1079 87"/>
    <path d="M1072 208C1052 201 1033 191 1016 177C998 163 984 147 972 129"/>
    <path d="M992 224C968 219 944 216 920 215"/>
    <path d="M886 220C864 218 842 217 820 217"/>
    <path d="M548 226H588"/>
    <path d="M612 226H652"/>
  </g>
  <g fill="#B87333">
    <path d="M155 123C165 115 175 113 185 116C177 124 167 126 155 123Z"/>
    <path d="M121 155C130 147 140 145 150 148C142 156 132 158 121 155Z"/>
    <path d="M121 87C130 79 140 77 150 80C142 88 132 90 121 87Z"/>
    <path d="M228 129C238 121 248 119 258 122C250 130 240 132 228 129Z"/>
    <path d="M1045 123C1035 115 1025 113 1015 116C1023 124 1033 126 1045 123Z"/>
    <path d="M1079 155C1070 147 1060 145 1050 148C1058 156 1068 158 1079 155Z"/>
    <path d="M1079 87C1070 79 1060 77 1050 80C1058 88 1068 90 1079 87Z"/>
    <path d="M972 129C962 121 952 119 942 122C950 130 960 132 972 129Z"/>
  </g>
</svg>
