<svg xmlns="http://www.w3.org/2000/svg" viewBox="0 0 160 600" fill="none">
  <g stroke="#B87333" stroke-width="2.4" stroke-linecap="round" stroke-linejoin="round">
    <path d="M18 592C20 565 24 536 32 507C40 477 49 448 52 414C56 376 52 340 46 303C40 266 39 230 45 195C52 156 64 122 70 86C74 61 75 35 73 10"/>
    <path d="M33 520C43 503 54 486 68 472C79 461 89 450 96 436"/>
    <path d="M29 438C39 426 48 413 55 398C62 383 66 367 68 350"/>
    <path d="M40 339C49 328 59 318 72 310C83 303 92 293 98 281"/>
    <path d="M47 244C57 232 67 220 74 206C80 194 83 181 85 168"/>
    <path d="M58 154C66 145 75 137 86 131"/>
    <path d="M24 566C30 553 38 541 48 531"/>
    <path d="M66 471C63 459 60 450 55 441"/>
    <path d="M61 304C59 292 55 282 49 273"/>
    <path d="M78 208C76 197 73 188 68 179"/>
  </g>
  <g fill="#B87333">
    <path d="M96 436C101 428 108 425 115 427C111 434 104 439 96 436Z"/>
    <path d="M72 472C79 465 87 463 95 466C89 472 81 475 72 472Z"/>
    <path d="M55 398C61 390 68 387 76 389C71 396 64 400 55 398Z"/>
    <path d="M72 310C79 303 87 301 95 304C89 310 81 313 72 310Z"/>
    <path d="M74 206C81 198 89 196 97 199C91 206 83 209 74 206Z"/>
    <path d="M86 131C93 124 101 122 109 125C103 131 95 134 86 131Z"/>
    <path d="M48 531C41 523 39 515 41 507C48 512 51 520 48 531Z"/>
    <path d="M55 441C48 434 45 426 46 418C53 423 57 431 55 441Z"/>
    <path d="M49 273C42 266 39 258 40 250C47 255 51 263 49 273Z"/>
    <path d="M68 179C61 172 58 164 59 156C66 161 70 169 68 179Z"/>
  </g>
</svg>
