<svg xmlns="http://www.w3.org/2000/svg" viewBox="0 0 600 200" fill="none">
  <g stroke="#B87333" stroke-width="2.6" stroke-linecap="round" stroke-linejoin="round">
    <path d="M14 188C28 177 42 164 53 150C64 136 71 120 74 102"/>
    <path d="M53 150C69 147 84 141 97 131C109 122 119 111 127 98"/>
    <path d="M74 102C85 108 95 117 103 128"/>
    <path d="M74 102C85 94 94 85 101 74"/>
    <path d="M98 176C116 170 132 162 146 151C160 140 172 127 181 112"/>
    <path d="M156 184C175 180 193 177 212 176"/>
    <path d="M244 182C261 180 278 179 295 179"/>
    <path d="M586 188C572 177 558 164 547 150C536 136 529 120 526 102"/>
    <path d="M547 150C531 147 516 141 503 131C491 122 481 111 473 98"/>
    <path d="M526 102C515 108 505 117 497 128"/>
    <path d="M526 102C515 94 506 85 499 74"/>
    <path d="M502 176C484 170 468 162 454 151C440 140 428 127 419 112"/>
    <path d="M444 184C425 180 407 177 388 176"/>
    <path d="M356 182C339 180 322 179 305 179"/>
  </g>
  <g fill="#B87333">
    <path d="M127 98C136 91 145 89 154 92C147 99 138 101 127 98Z"/>
    <path d="M103 128C111 121 120 119 129 122C122 129 113 131 103 128Z"/>
    <path d="M101 74C109 67 118 65 127 68C120 75 111 77 101 74Z"/>
    <path d="M181 112C190 105 199 103 208 106C201 113 192 115 181 112Z"/>
    <path d="M473 98C464 91 455 89 446 92C453 99 462 101 473 98Z"/>
    <path d="M497 128C489 121 480 119 471 122C478 129 487 131 497 128Z"/>
    <path d="M499 74C491 67 482 65 473 68C480 75 489 77 499 74Z"/>
    <path d="M419 112C410 105 401 103 392 106C399 113 408 115 419 112Z"/>
  </g>
</svg>
