<svg xmlns="http://www.w3.org/2000/svg" viewBox="0 0 240 240" fill="none">
  <g stroke="#B87333" stroke-width="2.7" stroke-linecap="round" stroke-linejoin="round">
    <path d="M10 86C18 73 26 60 36 48C50 31 66 18 86 10"/>
    <path d="M18 132C24 116 31 101 40 87C48 74 58 62 70 52"/>
    <path d="M34 40C47 44 59 50 69 58C79 66 87 76 93 88"/>
    <path d="M40 88C53 87 65 83 76 76C87 69 96 61 104 50"/>
    <path d="M56 118C67 113 77 106 86 97C94 89 101 80 106 70"/>
    <path d="M84 16C91 25 96 35 99 46"/>
    <path d="M230 154C222 167 214 180 204 192C190 209 174 222 154 230"/>
    <path d="M222 108C216 124 209 139 200 153C192 166 182 178 170 188"/>
    <path d="M206 200C193 196 181 190 171 182C161 174 153 164 147 152"/>
    <path d="M200 152C187 153 175 157 164 164C153 171 144 179 136 190"/>
    <path d="M184 122C173 127 163 134 154 143C146 151 139 160 134 170"/>
    <path d="M156 224C149 215 144 205 141 194"/>
    <path d="M118 12H138"/>
    <path d="M102 228H122"/>
  </g>
  <g fill="#B87333">
    <path d="M69 58C77 51 86 49 95 52C88 59 79 61 69 58Z"/>
    <path d="M93 88C101 81 110 79 119 82C112 89 103 91 93 88Z"/>
    <path d="M76 76C84 69 93 67 102 70C95 77 86 79 76 76Z"/>
    <path d="M86 97C94 90 103 88 112 91C105 98 96 100 86 97Z"/>
    <path d="M99 46C92 39 90 30 92 21C99 27 102 36 99 46Z"/>
    <path d="M171 182C163 189 154 191 145 188C152 181 161 179 171 182Z"/>
    <path d="M147 152C139 159 130 161 121 158C128 151 137 149 147 152Z"/>
    <path d="M164 164C156 171 147 173 138 170C145 163 154 161 164 164Z"/>
    <path d="M154 143C146 150 137 152 128 149C135 142 144 140 154 143Z"/>
    <path d="M141 194C148 201 150 210 148 219C141 213 138 204 141 194Z"/>
  </g>
</svg>
