<svg xmlns="http://www.w3.org/2000/svg" viewBox="0 0 240 240" fill="none">
  <g stroke="#B87333" stroke-width="2.4" stroke-linecap="round" stroke-linejoin="round">
    <path d="M20 40C30 38 40 34 48 28"/>
    <path d="M28 20C34 28 42 34 52 38"/>
    <path d="M20 188C30 186 39 181 46 174"/>
    <path d="M28 220C34 211 40 202 48 195"/>
    <path d="M220 52C211 48 202 42 195 34"/>
    <path d="M188 20C190 30 195 39 202 46"/>
    <path d="M220 200C210 198 200 194 192 188"/>
    <path d="M188 220C194 212 202 206 212 202"/>
  </g>
  <g fill="#B87333">
    <path d="M48 28C54 22 61 20 68 22C63 28 56 31 48 28Z"/>
    <path d="M46 174C52 168 59 166 66 168C61 174 54 177 46 174Z"/>
    <path d="M195 34C188 28 185 21 186 14C193 19 197 26 195 34Z"/>
    <path d="M192 188C185 182 182 175 183 168C190 173 194 180 192 188Z"/>
  </g>
</svg>
